<svg width="100" height="100" viewBox="0 0 100 100" fill="none" xmlns="http://www.w3.org/2000/svg">
<g clip-path="url(#clip0)">
<path fill-rule="evenodd" clip-rule="evenodd" d="M71.5611 25H63.7518C62.0244 25 60.6268 26.3977 60.6268 28.125V34.3758C60.6268 36.1 62.0244 37.4977 63.7518 37.4977H72.7285C77.1535 37.4977 80.0344 41.2748 79.1859 45.8014L77.4313 55.1603C76.6637 59.2635 72.7773 62.5014 68.7307 62.5014H63.7518C62.0244 62.5014 60.6268 63.899 60.6268 65.6232V92.1887C60.6268 96.5023 57.1264 99.998 52.8127 99.998C52.7531 100.003 47.6522 99.998 45.0002 99.998C43.276 99.998 41.8736 98.6004 41.8736 96.873C41.8736 95.1488 43.276 93.748 45.0002 93.748H51.2502C52.9775 93.748 54.3752 92.3504 54.3752 90.6262V64.0639C54.3752 59.7471 57.8725 56.2498 62.1893 56.2498H67.8365C69.4631 56.2498 71.1279 54.9514 71.5611 53.3141L73.2182 47.0732C73.702 45.2551 72.6689 43.7484 70.9033 43.7484H62.1891C57.8723 43.7484 54.375 40.252 54.375 35.9354V26.5625C54.375 22.2457 57.8723 18.7494 62.1891 18.7494H69.9984C71.7258 18.7494 73.1234 17.351 73.1234 15.6236V9.37266C73.1234 7.64922 71.7258 6.25078 69.9984 6.25078H57.5016C48.8711 6.25078 41.8734 13.2447 41.8734 21.8742V35.9352C41.8734 40.2518 38.3777 43.7482 34.0641 43.7482H29.4498C27.6844 43.7482 26.25 45.2551 26.25 47.073V53.3139C26.25 54.9512 27.5684 56.2496 29.1934 56.2496H34.0641C38.3777 56.2496 41.8734 59.7469 41.8734 64.0637V71.8729C41.8734 73.6002 40.4758 74.9994 38.7516 74.9994C37.0242 74.9994 35.6266 73.6002 35.6266 71.8729V65.623C35.6266 63.8988 34.2258 62.5012 32.5016 62.5012H27.3258C23.2791 62.5012 20 59.2633 20 55.1602V45.8012C20 41.2746 23.5873 37.4975 28.0123 37.4975H32.5014C34.2256 37.4975 35.6264 36.0998 35.6264 34.3756V20.3115C35.6268 9.09277 44.7193 0 55.9377 0H71.5611C75.8779 0 79.3752 3.49648 79.3752 7.81016V17.1859C79.3752 21.5025 75.8779 25 71.5611 25ZM38.7518 81.2496C40.476 81.2496 41.8736 82.6473 41.8736 84.3746C41.8736 86.0988 40.476 87.5012 38.7518 87.5012C37.0244 87.5012 35.6268 86.0988 35.6268 84.3746C35.6268 82.6473 37.0244 81.2496 38.7518 81.2496Z" fill="white"/>
</g>
<defs>
<clipPath id="clip0">
<rect width="100" height="100" fill="white"/>
</clipPath>
</defs>
</svg>
