<svg width="92" height="100" viewBox="0 0 92 100" fill="none" xmlns="http://www.w3.org/2000/svg">
<rect width="92" height="100" fill="black"/>
<path fill-rule="evenodd" clip-rule="evenodd" d="M66.6301 26.5H59.2647C57.6355 26.5 56.3173 27.8138 56.3173 29.4375V35.3132C56.3173 36.934 57.6355 38.2478 59.2647 38.2478H67.7312C71.9046 38.2478 74.6217 41.7983 73.8215 46.0533L72.1666 54.8507C71.4426 58.7076 67.7772 61.7513 63.9606 61.7513H59.2647C57.6355 61.7513 56.3173 63.0651 56.3173 64.6858V89.6573C56.3173 93.7122 53.0159 96.9981 48.9475 96.9981C48.8913 97.0024 44.0803 96.9981 41.5791 96.9981C39.9528 96.9981 38.6302 95.6843 38.6302 94.0606C38.6302 92.4399 39.9528 91.1231 41.5791 91.1231H47.4738C49.1029 91.1231 50.4211 89.8093 50.4211 88.1886V63.22C50.4211 59.1622 53.7196 55.8748 57.791 55.8748H63.1172C64.6513 55.8748 66.2216 54.6543 66.6301 53.1152L68.193 47.2488C68.6493 45.5398 67.675 44.1235 66.0097 44.1235H57.7908C53.7194 44.1235 50.4209 40.8368 50.4209 36.7792V27.9687C50.4209 23.911 53.7194 20.6244 57.7908 20.6244H65.1563C66.7854 20.6244 68.1036 19.3099 68.1036 17.6862V11.8103C68.1036 10.1903 66.7854 8.87573 65.1563 8.87573H53.3698C45.2299 8.87573 38.63 15.45 38.63 23.5618V36.779C38.63 40.8366 35.333 44.1233 31.2646 44.1233H26.9126C25.2476 44.1233 23.8947 45.5398 23.8947 47.2487V53.115C23.8947 54.6541 25.1381 55.8746 26.6708 55.8746H31.2646C35.333 55.8746 38.63 59.162 38.63 63.2198V70.5605C38.63 72.1842 37.3118 73.4994 35.6856 73.4994C34.0565 73.4994 32.7383 72.1842 32.7383 70.5605V64.6856C32.7383 63.0649 31.4171 61.7511 29.7909 61.7511H24.9093C21.0927 61.7511 18 58.7075 18 54.8505V46.0531C18 41.7981 21.3834 38.2476 25.5568 38.2476H29.7907C31.4169 38.2476 32.7381 36.9338 32.7381 35.313V22.0928C32.7385 11.5472 41.3142 3 51.8948 3H66.6301C70.7015 3 74 6.28669 74 10.3415V19.1548C74 23.2124 70.7015 26.5 66.6301 26.5ZM35.6858 79.3746C37.312 79.3746 38.6302 80.6884 38.6302 82.3121C38.6302 83.9329 37.312 85.2511 35.6858 85.2511C34.0567 85.2511 32.7385 83.9329 32.7385 82.3121C32.7385 80.6884 34.0567 79.3746 35.6858 79.3746Z" fill="white"/>
</svg>
