<svg width="105" height="100" viewBox="0 0 105 100" fill="none" xmlns="http://www.w3.org/2000/svg">
<rect width="105" height="100" fill="black"/>
<path fill-rule="evenodd" clip-rule="evenodd" d="M38.2919 61.7588C39.9105 61.7588 41.2192 63.0704 41.2192 64.686C41.2192 66.3017 39.909 67.6118 38.2919 67.6118C36.6763 67.6118 35.3662 66.3017 35.3662 64.686C35.3662 63.0704 36.6778 61.7588 38.2919 61.7588ZM29.713 53.3767C27.8609 40.5266 36.7777 28.6106 49.6278 26.7585C62.4778 24.9064 74.3953 33.8232 76.2474 46.6733C78.0995 59.5234 69.1827 71.4408 56.3326 73.2929C56.1887 73.3149 56.0506 73.3149 55.9081 73.3311L56.3429 73.2709C54.7361 73.5015 53.2497 72.3867 53.0162 70.7813C52.7856 69.176 53.9003 67.6852 55.5057 67.4517L55.5013 67.4414C55.5057 67.4414 55.5086 67.4414 55.513 67.4414C65.148 66.0534 71.8294 57.119 70.4414 47.484C69.0534 37.8476 60.1205 31.1662 50.484 32.5542C40.8534 33.9422 34.1662 42.8766 35.5557 52.5116C35.5557 52.516 35.5557 52.5189 35.5586 52.5189L35.5483 52.5233C35.7789 54.1287 34.6641 55.6165 33.0588 55.8486C31.4534 56.0792 29.9627 54.9658 29.7291 53.3605L29.7938 53.7982C29.7732 53.6542 29.7335 53.5191 29.713 53.3767ZM76.4838 22.1011C76.4838 19.6659 78.4608 17.689 80.8989 17.689C83.3106 17.689 85.2655 19.6248 85.3037 22.0335V22.1716C85.2655 24.5803 83.3106 26.5162 80.8989 26.5162C78.4608 26.5162 76.4838 24.5392 76.4838 22.1011ZM92.1583 88.9513C87.05 94.1124 79.9618 97 67.7051 97H38.2919C26.0352 97 18.9485 94.1124 13.8431 88.9513C8.80238 83.8606 6 76.7547 6 64.7081V35.2949C6 23.2438 8.80238 16.1424 13.8431 11.0517C18.9485 5.88903 26.0352 3 38.2919 3H67.7037C79.9618 3 87.0486 5.88903 92.1569 11.0517C92.4844 11.3792 92.784 11.7391 93.0866 12.0945C93.7064 12.6321 94.1074 13.4193 94.1074 14.305C94.1074 15.9279 92.7928 17.2425 91.1699 17.2425C90.2827 17.2425 89.4955 16.84 88.9579 16.2173L88.9198 16.2481C88.6172 15.8883 88.3337 15.5152 87.9988 15.1789C83.5309 10.661 76.9348 8.88822 66.207 8.88822H39.7768C29.052 8.88822 22.4691 10.661 18.0012 15.1789C13.5905 19.6336 11.875 26.2474 11.875 36.7886V63.2217C11.875 73.7673 13.5905 80.3635 18.0012 84.8167C22.4691 89.3331 29.052 91.125 39.7768 91.125H66.2099C76.9377 91.125 83.5338 89.3331 88.0018 84.8167C92.4124 80.3635 94.1103 73.7673 94.1103 63.2217V36.7901C94.1103 34.2227 94.0046 31.8947 93.7901 29.7694L93.8033 29.7665C93.6447 28.1465 94.8182 26.6983 96.4412 26.5264C98.0671 26.359 99.5256 27.5399 99.6916 29.1628C99.696 29.2054 99.6916 29.2451 99.6916 29.2877H99.6989C99.8766 31.1589 100 33.1197 100 35.2949V64.7066C100 76.7548 97.1947 83.8606 92.1583 88.9513Z" fill="white"/>
</svg>
