<svg width="110" height="100" viewBox="0 0 110 100" fill="none" xmlns="http://www.w3.org/2000/svg">
<rect width="110" height="100" fill="black"/>
<path fill-rule="evenodd" clip-rule="evenodd" d="M97.1879 97H81.5646C77.7804 97 74.6265 94.3057 73.9061 90.7255C73.8528 90.7255 73.804 90.7331 73.7505 90.7331V62.3776C73.7505 59.0011 70.952 56.2684 67.5006 56.2684C64.0491 56.2684 61.2506 59.0011 61.2506 62.3776V89.0854V89.1696C61.2506 91.0806 60.5381 92.8017 59.4072 94.1649C58.7861 95.1075 57.7258 95.7287 56.5156 95.7287C54.5992 95.7287 53.0473 94.1726 53.0473 92.2508C53.0473 91.2349 53.4883 90.3293 54.1855 89.6929C54.6906 89.1344 55.002 88.4108 55.002 87.6027V83.1231V76.6725V62.0855C55.002 55.4117 60.5973 50 67.5004 50C74.4034 50 80.0019 55.4117 80.0019 62.0855V83.1231C80.0019 83.3479 79.9806 83.5423 79.9667 83.7487C79.9774 83.7456 79.9911 83.7456 80.0019 83.7411V87.6027C80.0019 89.3318 81.3995 90.7331 83.1269 90.7331H95.6254C97.3527 90.7331 98.7504 89.3318 98.7504 87.6027V59.402C98.7504 59.1664 98.7228 58.9414 98.674 58.7209C97.8715 45.1132 87.0349 34.3314 73.7505 34.3314C68.236 34.3314 63.158 36.2071 59.0321 39.3559C59.0168 39.3482 59 39.3514 58.968 39.3758C58.5485 39.7141 58.019 39.9144 57.4422 39.9144C56.0918 39.9144 55.0023 38.8173 55.0023 37.4649C55.0023 37.2967 54.9924 37.2093 54.9748 37.1849C54.8307 35.589 53.5061 34.3314 51.8773 34.3314H42.5009C39.0501 34.3314 36.2503 37.1388 36.2503 40.5998V87.6027C36.2503 87.8844 36.2999 88.1552 36.3693 88.4139C36.296 88.6387 36.2503 88.8882 36.2503 89.1696C36.2503 93.4948 32.7538 97 28.437 97H27.8655H12.8131C8.5004 97 5 93.4948 5 89.1696V35.898C5 31.5729 8.5004 28.0676 12.8131 28.0676H20.6264C25.8015 28.0676 29.9991 23.8586 29.9991 18.6657C29.9991 13.473 25.8015 9.26393 20.6264 9.26393C15.4483 9.26393 11.2508 13.473 11.2508 18.6657C11.2508 20.3976 9.85314 21.799 8.12501 21.799C6.40157 21.799 5 20.3976 5 18.6657C5 10.012 11.9969 3 20.6264 3C29.2567 3 36.2499 10.012 36.2499 18.6657C36.2499 19.4598 36.1728 20.2324 36.0577 20.9959C36.0325 21.1428 36.0189 21.2942 35.9906 21.441C35.854 22.203 35.6687 22.9527 35.423 23.6718C35.413 23.707 35.3954 23.7391 35.3849 23.7742C34.8454 25.3303 34.078 26.7714 33.1075 28.0643C30.2587 31.8617 25.7352 34.3312 20.6266 34.3312H14.3756C12.6483 34.3312 11.2506 35.7373 11.2506 37.4645V87.6023C11.2506 89.3314 12.6483 90.7327 14.3756 90.7327H30.1569C30.0554 90.2263 29.9989 89.7062 29.9989 89.1692V40.5998C29.9989 33.6781 35.5982 28.0676 42.5003 28.0676H53.4393C55.3695 28.0676 57.1242 28.7807 58.4854 29.951C58.5022 29.9617 58.519 29.9433 58.5373 29.957C59.0836 30.4282 59.7916 30.7098 60.5668 30.7098C60.9942 30.7098 61.4 30.6256 61.7676 30.4695C61.8789 30.4206 61.9461 30.4282 62.0102 30.4359C65.6387 28.9458 69.5844 28.0674 73.7501 28.0674C89.949 28.0674 103.267 40.4267 104.843 56.25C104.948 56.7596 105 57.2934 105 57.8351V89.1696C105 93.4948 101.505 97 97.1879 97ZM45.6263 90.7331C47.3498 90.7331 48.7513 92.1377 48.7513 93.8665C48.7513 95.5986 47.35 97 45.6263 97C43.899 97 42.5005 95.5986 42.5005 93.8665C42.5005 92.1377 43.8992 90.7331 45.6263 90.7331Z" fill="white"/>
</svg>
