<svg width="113" height="100" viewBox="0 0 113 100" fill="none" xmlns="http://www.w3.org/2000/svg">
<rect width="113" height="100" fill="black"/>
<path fill-rule="evenodd" clip-rule="evenodd" d="M109 18.9168C109 20.3919 108.54 21.7547 107.751 22.8685C105.648 26.0262 102.792 28.3185 99.9418 30.7196C99.3572 31.2875 98.9867 32.0596 98.9376 32.929C98.6193 47.4378 93.2656 64.0308 83.7277 74.9961C72.3201 88.1064 56.7687 97 38.7797 97C36.9357 97 35.436 95.4953 35.436 93.6432C35.436 91.7878 36.9357 90.2864 38.7797 90.2864C71.9153 90.2864 89.9692 61.2084 92.0723 36.3842C92.1703 36.0376 92.2307 35.5901 92.2307 34.9542C92.2307 34.7427 92.234 34.5321 92.2453 34.3256C92.4102 31.4313 93.7 28.8382 95.6789 26.9787C95.7769 26.8845 95.8519 26.7985 95.9238 26.7116C98.3387 24.3252 100.566 21.5363 102.29 18.9172C99.8406 20.0203 97.2578 20.8553 94.5736 21.4201C94.1247 21.4201 93.7458 21.0399 93.7458 20.5809C93.7458 20.3514 93.8388 20.1407 93.9891 19.9901C93.9955 19.9828 93.9663 19.9935 93.9629 19.9935C96.598 17.6832 98.6193 14.6642 99.7067 11.2205C97.9368 12.2819 96.0691 13.1964 94.131 13.9685C92.8787 14.4693 91.5187 14.7586 90.0852 14.7586C87.8549 14.7586 85.7816 14.0849 84.0575 12.9293C83.9906 12.8842 83.9221 12.854 83.855 12.8129C80.9977 10.8861 77.6655 9.72656 73.8906 9.72656L73.4971 9.79789C65.1916 9.79789 58.8797 14.4986 56.5204 21.6949C56.4542 21.7258 55.7783 24.7173 55.7106 25.1467C55.0845 29.1583 51.6281 32.2258 47.4549 32.2258C47.0018 32.2258 46.5552 32.188 46.1201 32.1127C35.1543 30.0541 25.2536 25.2934 17.8639 17.5514C17.819 17.5136 17.7847 17.5023 17.721 17.4383C16.7429 16.4556 15.1567 16.4556 14.1747 17.4383C13.9461 17.6718 13.7697 17.9349 13.6458 18.2209C13.6163 18.2931 13.5977 18.293 13.5747 18.3077C12.6824 20.3778 12.0301 22.6168 12.0301 24.8304C12.0301 29.4107 13.8857 33.5918 16.6752 36.915C16.6752 36.9192 16.6418 36.9003 16.6564 36.915C16.9005 37.2083 17.0466 37.5853 17.0466 37.995C17.0466 38.9211 16.2963 39.6734 15.3739 39.6734C15.1902 39.6734 15.018 39.6251 14.8531 39.5685C14.827 39.557 14.8008 39.5456 14.7747 39.5349C14.7444 39.5456 14.711 39.5612 14.6579 39.5349C14.4335 39.4219 14.182 39.3579 13.9127 39.3579C13.0048 39.3579 12.2703 40.0955 12.2473 40.9985C13.1175 46.9712 16.7691 52.2596 21.699 55.3609C21.6353 55.3544 21.5979 55.3544 21.6206 55.3674C22.0737 55.6657 22.3774 56.1852 22.3774 56.772C22.3774 57.698 21.628 58.4504 20.7055 58.4504C20.6867 58.4504 20.6679 58.447 20.6491 58.447C20.6271 58.4422 20.6083 58.4355 20.5853 58.4323C20.5258 58.4241 20.4693 58.4126 20.4089 58.4061C19.9592 58.429 19.6064 58.7863 19.6064 59.2371C19.6064 59.3699 19.6334 59.4929 19.689 59.6026C21.0499 63.0053 23.3519 65.9129 26.2501 68.0405C26.2843 68.0667 26.2917 68.0896 26.3326 68.1191C26.5801 68.2962 26.8127 68.4993 27.0379 68.7223C29.3205 71.0137 29.3205 74.7326 27.0379 77.0291C26.3368 77.7273 25.504 78.2174 24.6231 78.4878C24.6158 78.4912 24.6198 78.4878 24.6116 78.4912C21.1853 79.5827 17.5559 80.2155 13.702 80.2155C13.0571 80.2155 12.338 80.2155 11.6138 80.2155C11.1526 80.2155 10.7779 80.5925 10.7779 81.0547C10.7779 81.3268 10.9127 81.553 11.1077 81.7038C12.484 82.5233 13.8939 83.3249 15.3593 84.0705L15.3559 84.0739C16.3413 84.6276 17.0205 85.6732 17.0205 86.8927C17.0205 88.6809 15.5772 90.1299 13.7958 90.1299C13.0686 90.1299 12.4015 89.8775 11.8611 89.471C9.51814 88.2401 7.24627 86.9223 5.08704 85.5192C2.45592 83.811 1.33827 80.487 2.39553 77.5055C3.3556 74.7798 5.8862 73.5013 8.68701 73.5013C9.93109 73.6522 12.4282 73.5013 13.7026 73.5013C16.2708 73.5013 18.3745 72.9703 20.8073 72.3801C17.1557 69.2709 14.3361 65.1306 12.8103 60.302C12.4316 59.1005 12.394 57.8403 12.6755 56.652C8.36036 51.925 5.34242 45.0516 5.34242 38.2585C5.37586 36.5759 6.44439 35.1722 7.53592 33.9715C6.47867 31.0845 5.34242 28.0063 5.34242 24.8297C5.34242 20.1854 7.13091 15.6051 9.4289 11.6116C10.5384 9.68481 13.1816 8.22041 15.3743 8.04754C17.3801 8.04754 19.1425 9.15381 20.4209 10.7422C26.7272 18.5786 36.5975 22.7901 46.308 25.1986C46.4729 25.2281 46.6493 25.251 46.8256 25.251C48.4191 25.251 49.7385 24.1406 50.0837 22.6424C52.7449 11.3592 61.4692 3 73.4973 3C78.5848 3 83.5449 4.53992 87.739 7.32877C88.392 7.7427 89.1529 7.99509 89.9807 7.99509C90.3481 7.99509 90.7007 7.93446 91.0338 7.84425C92.8461 7.1666 94.611 6.37985 96.2829 5.37177C97.3441 4.73503 98.5246 4.68657 99.7016 4.68657C101.187 4.68657 102.668 4.92343 103.883 5.90193C106.061 7.65983 106.941 10.5995 106.09 13.2866C106.09 13.294 106.087 13.3013 106.087 13.3087C107.846 14.5356 109 16.591 109 18.9168ZM8.68701 73.5013C8.4241 73.4717 8.94886 73.5013 8.68701 73.5013V73.5013ZM15.3745 8.04754C15.2021 8.04754 15.5476 8.03181 15.3745 8.04754V8.04754ZM27.0791 88.6081C28.924 88.6081 30.4237 90.1094 30.4237 91.9648C30.4237 93.8169 28.924 95.3216 27.0791 95.3216C25.2308 95.3216 23.7354 93.8169 23.7354 91.9648C23.7354 90.1094 25.2311 88.6081 27.0791 88.6081Z" fill="white"/>
</svg>
